<svg width="254" height="62" viewBox="0 0 254 62" fill="none" xmlns="http://www.w3.org/2000/svg">
<rect width="254" height="62" rx="8" fill="url(#paint0_linear_9915_79906)"/>
<path d="M23.984 26.016H19.792L19.12 28H16.256L20.32 16.768H23.488L27.552 28H24.656L23.984 26.016ZM23.28 23.904L21.888 19.792L20.512 23.904H23.28ZM28.2449 23.52C28.2449 22.6027 28.4155 21.7973 28.7569 21.104C29.1089 20.4107 29.5835 19.8773 30.1809 19.504C30.7782 19.1307 31.4449 18.944 32.1809 18.944C32.7675 18.944 33.3009 19.0667 33.7809 19.312C34.2715 19.5573 34.6555 19.888 34.9329 20.304V16.16H37.6689V28H34.9329V26.72C34.6769 27.1467 34.3089 27.488 33.8289 27.744C33.3595 28 32.8102 28.128 32.1809 28.128C31.4449 28.128 30.7782 27.9413 30.1809 27.568C29.5835 27.184 29.1089 26.6453 28.7569 25.952C28.4155 25.248 28.2449 24.4373 28.2449 23.52ZM34.9329 23.536C34.9329 22.8533 34.7409 22.3147 34.3569 21.92C33.9835 21.5253 33.5249 21.328 32.9809 21.328C32.4369 21.328 31.9729 21.5253 31.5889 21.92C31.2155 22.304 31.0289 22.8373 31.0289 23.52C31.0289 24.2027 31.2155 24.7467 31.5889 25.152C31.9729 25.5467 32.4369 25.744 32.9809 25.744C33.5249 25.744 33.9835 25.5467 34.3569 25.152C34.7409 24.7573 34.9329 24.2187 34.9329 23.536ZM51.0403 18.976C52.1496 18.976 53.0296 19.312 53.6803 19.984C54.3416 20.656 54.6723 21.5893 54.6723 22.784V28H51.9523V23.152C51.9523 22.576 51.7976 22.1333 51.4883 21.824C51.1896 21.504 50.7736 21.344 50.2403 21.344C49.7069 21.344 49.2856 21.504 48.9763 21.824C48.6776 22.1333 48.5283 22.576 48.5283 23.152V28H45.8083V23.152C45.8083 22.576 45.6536 22.1333 45.3443 21.824C45.0456 21.504 44.6296 21.344 44.0963 21.344C43.5629 21.344 43.1416 21.504 42.8323 21.824C42.5336 22.1333 42.3843 22.576 42.3843 23.152V28H39.6483V19.072H42.3843V20.192C42.6616 19.8187 43.0243 19.5253 43.4723 19.312C43.9203 19.088 44.4269 18.976 44.9923 18.976C45.6643 18.976 46.2616 19.12 46.7843 19.408C47.3176 19.696 47.7336 20.1067 48.0323 20.64C48.3416 20.1493 48.7629 19.7493 49.2963 19.44C49.8296 19.1307 50.4109 18.976 51.0403 18.976ZM57.9618 18.144C57.4818 18.144 57.0871 18.0053 56.7778 17.728C56.4791 17.44 56.3298 17.088 56.3298 16.672C56.3298 16.2453 56.4791 15.8933 56.7778 15.616C57.0871 15.328 57.4818 15.184 57.9618 15.184C58.4311 15.184 58.8151 15.328 59.1138 15.616C59.4231 15.8933 59.5778 16.2453 59.5778 16.672C59.5778 17.088 59.4231 17.44 59.1138 17.728C58.8151 18.0053 58.4311 18.144 57.9618 18.144ZM59.3218 19.072V28H56.5858V19.072H59.3218ZM66.7445 18.976C67.7898 18.976 68.6218 19.3173 69.2405 20C69.8698 20.672 70.1845 21.6 70.1845 22.784V28H67.4645V23.152C67.4645 22.5547 67.3098 22.0907 67.0005 21.76C66.6912 21.4293 66.2752 21.264 65.7525 21.264C65.2298 21.264 64.8138 21.4293 64.5045 21.76C64.1952 22.0907 64.0405 22.5547 64.0405 23.152V28H61.3045V19.072H64.0405V20.256C64.3178 19.8613 64.6912 19.552 65.1605 19.328C65.6298 19.0933 66.1578 18.976 66.7445 18.976ZM73.4618 18.144C72.9818 18.144 72.5871 18.0053 72.2778 17.728C71.9791 17.44 71.8298 17.088 71.8298 16.672C71.8298 16.2453 71.9791 15.8933 72.2778 15.616C72.5871 15.328 72.9818 15.184 73.4618 15.184C73.9311 15.184 74.3151 15.328 74.6138 15.616C74.9231 15.8933 75.0778 16.2453 75.0778 16.672C75.0778 17.088 74.9231 17.44 74.6138 17.728C74.3151 18.0053 73.9311 18.144 73.4618 18.144ZM74.8218 19.072V28H72.0858V19.072H74.8218ZM80.4365 28.128C79.6578 28.128 78.9645 27.9947 78.3565 27.728C77.7485 27.4613 77.2685 27.0987 76.9165 26.64C76.5645 26.1707 76.3672 25.648 76.3245 25.072H79.0285C79.0605 25.3813 79.2045 25.632 79.4605 25.824C79.7165 26.016 80.0312 26.112 80.4045 26.112C80.7458 26.112 81.0072 26.048 81.1885 25.92C81.3805 25.7813 81.4765 25.6053 81.4765 25.392C81.4765 25.136 81.3432 24.9493 81.0765 24.832C80.8098 24.704 80.3778 24.5653 79.7805 24.416C79.1405 24.2667 78.6072 24.112 78.1805 23.952C77.7538 23.7813 77.3858 23.52 77.0765 23.168C76.7672 22.8053 76.6125 22.32 76.6125 21.712C76.6125 21.2 76.7512 20.736 77.0285 20.32C77.3165 19.8933 77.7325 19.5573 78.2765 19.312C78.8312 19.0667 79.4872 18.944 80.2445 18.944C81.3645 18.944 82.2445 19.2213 82.8845 19.776C83.5352 20.3307 83.9085 21.0667 84.0045 21.984H81.4765C81.4338 21.6747 81.2952 21.4293 81.0605 21.248C80.8365 21.0667 80.5378 20.976 80.1645 20.976C79.8445 20.976 79.5992 21.04 79.4285 21.168C79.2578 21.2853 79.1725 21.4507 79.1725 21.664C79.1725 21.92 79.3058 22.112 79.5725 22.24C79.8498 22.368 80.2765 22.496 80.8525 22.624C81.5138 22.7947 82.0525 22.9653 82.4685 23.136C82.8845 23.296 83.2472 23.5627 83.5565 23.936C83.8765 24.2987 84.0418 24.7893 84.0525 25.408C84.0525 25.9307 83.9032 26.4 83.6045 26.816C83.3165 27.2213 82.8952 27.5413 82.3405 27.776C81.7965 28.0107 81.1618 28.128 80.4365 28.128ZM90.7024 25.68V28H89.3104C88.3184 28 87.545 27.76 86.9904 27.28C86.4357 26.7893 86.1584 25.9947 86.1584 24.896V21.344H85.0704V19.072H86.1584V16.896H88.8944V19.072H90.6864V21.344H88.8944V24.928C88.8944 25.1947 88.9584 25.3867 89.0864 25.504C89.2144 25.6213 89.4277 25.68 89.7264 25.68H90.7024ZM94.9624 20.56C95.2824 20.0693 95.6824 19.6853 96.1624 19.408C96.6424 19.12 97.1757 18.976 97.7624 18.976V21.872H97.0104C96.3277 21.872 95.8157 22.0213 95.4744 22.32C95.133 22.608 94.9624 23.12 94.9624 23.856V28H92.2264V19.072H94.9624V20.56ZM98.5261 23.52C98.5261 22.6027 98.6968 21.7973 99.0381 21.104C99.3901 20.4107 99.8648 19.8773 100.462 19.504C101.059 19.1307 101.726 18.944 102.462 18.944C103.091 18.944 103.641 19.072 104.11 19.328C104.59 19.584 104.958 19.92 105.214 20.336V19.072H107.95V28H105.214V26.736C104.947 27.152 104.574 27.488 104.094 27.744C103.625 28 103.075 28.128 102.446 28.128C101.721 28.128 101.059 27.9413 100.462 27.568C99.8648 27.184 99.3901 26.6453 99.0381 25.952C98.6968 25.248 98.5261 24.4373 98.5261 23.52ZM105.214 23.536C105.214 22.8533 105.022 22.3147 104.638 21.92C104.265 21.5253 103.806 21.328 103.262 21.328C102.718 21.328 102.254 21.5253 101.87 21.92C101.497 22.304 101.31 22.8373 101.31 23.52C101.31 24.2027 101.497 24.7467 101.87 25.152C102.254 25.5467 102.718 25.744 103.262 25.744C103.806 25.744 104.265 25.5467 104.638 25.152C105.022 24.7573 105.214 24.2187 105.214 23.536ZM114.906 25.68V28H113.514C112.522 28 111.748 27.76 111.194 27.28C110.639 26.7893 110.362 25.9947 110.362 24.896V21.344H109.274V19.072H110.362V16.896H113.098V19.072H114.89V21.344H113.098V24.928C113.098 25.1947 113.162 25.3867 113.29 25.504C113.418 25.6213 113.631 25.68 113.93 25.68H114.906ZM117.806 18.144C117.326 18.144 116.931 18.0053 116.622 17.728C116.323 17.44 116.174 17.088 116.174 16.672C116.174 16.2453 116.323 15.8933 116.622 15.616C116.931 15.328 117.326 15.184 117.806 15.184C118.275 15.184 118.659 15.328 118.958 15.616C119.267 15.8933 119.422 16.2453 119.422 16.672C119.422 17.088 119.267 17.44 118.958 17.728C118.659 18.0053 118.275 18.144 117.806 18.144ZM119.166 19.072V28H116.43V19.072H119.166ZM125.212 28.128C124.338 28.128 123.548 27.9413 122.844 27.568C122.151 27.1947 121.602 26.6613 121.196 25.968C120.802 25.2747 120.604 24.464 120.604 23.536C120.604 22.6187 120.807 21.8133 121.212 21.12C121.618 20.416 122.172 19.8773 122.876 19.504C123.58 19.1307 124.37 18.944 125.244 18.944C126.119 18.944 126.908 19.1307 127.612 19.504C128.316 19.8773 128.871 20.416 129.276 21.12C129.682 21.8133 129.884 22.6187 129.884 23.536C129.884 24.4533 129.676 25.264 129.26 25.968C128.855 26.6613 128.295 27.1947 127.58 27.568C126.876 27.9413 126.087 28.128 125.212 28.128ZM125.212 25.76C125.735 25.76 126.178 25.568 126.54 25.184C126.914 24.8 127.1 24.2507 127.1 23.536C127.1 22.8213 126.919 22.272 126.556 21.888C126.204 21.504 125.767 21.312 125.244 21.312C124.711 21.312 124.268 21.504 123.916 21.888C123.564 22.2613 123.388 22.8107 123.388 23.536C123.388 24.2507 123.559 24.8 123.9 25.184C124.252 25.568 124.69 25.76 125.212 25.76ZM136.776 18.976C137.821 18.976 138.653 19.3173 139.272 20C139.901 20.672 140.216 21.6 140.216 22.784V28H137.496V23.152C137.496 22.5547 137.341 22.0907 137.032 21.76C136.722 21.4293 136.306 21.264 135.784 21.264C135.261 21.264 134.845 21.4293 134.536 21.76C134.226 22.0907 134.072 22.5547 134.072 23.152V28H131.336V19.072H134.072V20.256C134.349 19.8613 134.722 19.552 135.192 19.328C135.661 19.0933 136.189 18.976 136.776 18.976Z" fill="white"/>
<path d="M25.408 38.696V47H24.316V40.808L21.556 47H20.788L18.016 40.796V47H16.924V38.696H18.1L21.172 45.56L24.244 38.696H25.408ZM26.8519 43.688C26.8519 43.016 26.9879 42.428 27.2599 41.924C27.5319 41.412 27.9039 41.016 28.3759 40.736C28.8559 40.456 29.3879 40.316 29.9719 40.316C30.5479 40.316 31.0479 40.44 31.4719 40.688C31.8959 40.936 32.2119 41.248 32.4199 41.624V40.424H33.5239V47H32.4199V45.776C32.2039 46.16 31.8799 46.48 31.4479 46.736C31.0239 46.984 30.5279 47.108 29.9599 47.108C29.3759 47.108 28.8479 46.964 28.3759 46.676C27.9039 46.388 27.5319 45.984 27.2599 45.464C26.9879 44.944 26.8519 44.352 26.8519 43.688ZM32.4199 43.7C32.4199 43.204 32.3199 42.772 32.1199 42.404C31.9199 42.036 31.6479 41.756 31.3039 41.564C30.9679 41.364 30.5959 41.264 30.1879 41.264C29.7799 41.264 29.4079 41.36 29.0719 41.552C28.7359 41.744 28.4679 42.024 28.2679 42.392C28.0679 42.76 27.9679 43.192 27.9679 43.688C27.9679 44.192 28.0679 44.632 28.2679 45.008C28.4679 45.376 28.7359 45.66 29.0719 45.86C29.4079 46.052 29.7799 46.148 30.1879 46.148C30.5959 46.148 30.9679 46.052 31.3039 45.86C31.6479 45.66 31.9199 45.376 32.1199 45.008C32.3199 44.632 32.4199 44.196 32.4199 43.7ZM38.5733 40.304C39.3733 40.304 40.0213 40.548 40.5173 41.036C41.0133 41.516 41.2613 42.212 41.2613 43.124V47H40.1813V43.28C40.1813 42.624 40.0173 42.124 39.6893 41.78C39.3613 41.428 38.9133 41.252 38.3453 41.252C37.7693 41.252 37.3093 41.432 36.9653 41.792C36.6293 42.152 36.4613 42.676 36.4613 43.364V47H35.3693V40.424H36.4613V41.36C36.6773 41.024 36.9693 40.764 37.3373 40.58C37.7133 40.396 38.1253 40.304 38.5733 40.304ZM42.6371 43.688C42.6371 43.016 42.7731 42.428 43.0451 41.924C43.3171 41.412 43.6891 41.016 44.1611 40.736C44.6411 40.456 45.1731 40.316 45.7571 40.316C46.3331 40.316 46.8331 40.44 47.2571 40.688C47.6811 40.936 47.9971 41.248 48.2051 41.624V40.424H49.3091V47H48.2051V45.776C47.9891 46.16 47.6651 46.48 47.2331 46.736C46.8091 46.984 46.3131 47.108 45.7451 47.108C45.1611 47.108 44.6331 46.964 44.1611 46.676C43.6891 46.388 43.3171 45.984 43.0451 45.464C42.7731 44.944 42.6371 44.352 42.6371 43.688ZM48.2051 43.7C48.2051 43.204 48.1051 42.772 47.9051 42.404C47.7051 42.036 47.4331 41.756 47.0891 41.564C46.7531 41.364 46.3811 41.264 45.9731 41.264C45.5651 41.264 45.1931 41.36 44.8571 41.552C44.5211 41.744 44.2531 42.024 44.0531 42.392C43.8531 42.76 43.7531 43.192 43.7531 43.688C43.7531 44.192 43.8531 44.632 44.0531 45.008C44.2531 45.376 44.5211 45.66 44.8571 45.86C45.1931 46.052 45.5651 46.148 45.9731 46.148C46.3811 46.148 46.7531 46.052 47.0891 45.86C47.4331 45.66 47.7051 45.376 47.9051 45.008C48.1051 44.632 48.2051 44.196 48.2051 43.7ZM53.8665 40.316C54.4345 40.316 54.9305 40.44 55.3545 40.688C55.7865 40.936 56.1065 41.248 56.3145 41.624V40.424H57.4185V47.144C57.4185 47.744 57.2905 48.276 57.0345 48.74C56.7785 49.212 56.4105 49.58 55.9305 49.844C55.4585 50.108 54.9065 50.24 54.2745 50.24C53.4105 50.24 52.6905 50.036 52.1145 49.628C51.5385 49.22 51.1985 48.664 51.0945 47.96H52.1745C52.2945 48.36 52.5425 48.68 52.9185 48.92C53.2945 49.168 53.7465 49.292 54.2745 49.292C54.8745 49.292 55.3625 49.104 55.7385 48.728C56.1225 48.352 56.3145 47.824 56.3145 47.144V45.764C56.0985 46.148 55.7785 46.468 55.3545 46.724C54.9305 46.98 54.4345 47.108 53.8665 47.108C53.2825 47.108 52.7505 46.964 52.2705 46.676C51.7985 46.388 51.4265 45.984 51.1545 45.464C50.8825 44.944 50.7465 44.352 50.7465 43.688C50.7465 43.016 50.8825 42.428 51.1545 41.924C51.4265 41.412 51.7985 41.016 52.2705 40.736C52.7505 40.456 53.2825 40.316 53.8665 40.316ZM56.3145 43.7C56.3145 43.204 56.2145 42.772 56.0145 42.404C55.8145 42.036 55.5425 41.756 55.1985 41.564C54.8625 41.364 54.4905 41.264 54.0825 41.264C53.6745 41.264 53.3025 41.36 52.9665 41.552C52.6305 41.744 52.3625 42.024 52.1625 42.392C51.9625 42.76 51.8625 43.192 51.8625 43.688C51.8625 44.192 51.9625 44.632 52.1625 45.008C52.3625 45.376 52.6305 45.66 52.9665 45.86C53.3025 46.052 53.6745 46.148 54.0825 46.148C54.4905 46.148 54.8625 46.052 55.1985 45.86C55.5425 45.66 55.8145 45.376 56.0145 45.008C56.2145 44.632 56.3145 44.196 56.3145 43.7ZM65.2638 43.46C65.2638 43.668 65.2518 43.888 65.2278 44.12H59.9718C60.0118 44.768 60.2318 45.276 60.6318 45.644C61.0398 46.004 61.5318 46.184 62.1078 46.184C62.5798 46.184 62.9718 46.076 63.2838 45.86C63.6038 45.636 63.8278 45.34 63.9558 44.972H65.1318C64.9558 45.604 64.6038 46.12 64.0758 46.52C63.5478 46.912 62.8918 47.108 62.1078 47.108C61.4838 47.108 60.9238 46.968 60.4278 46.688C59.9398 46.408 59.5558 46.012 59.2758 45.5C58.9958 44.98 58.8558 44.38 58.8558 43.7C58.8558 43.02 58.9918 42.424 59.2638 41.912C59.5358 41.4 59.9158 41.008 60.4038 40.736C60.8998 40.456 61.4678 40.316 62.1078 40.316C62.7318 40.316 63.2838 40.452 63.7638 40.724C64.2438 40.996 64.6118 41.372 64.8678 41.852C65.1318 42.324 65.2638 42.86 65.2638 43.46ZM64.1358 43.232C64.1358 42.816 64.0438 42.46 63.8598 42.164C63.6758 41.86 63.4238 41.632 63.1038 41.48C62.7918 41.32 62.4438 41.24 62.0598 41.24C61.5078 41.24 61.0358 41.416 60.6438 41.768C60.2598 42.12 60.0398 42.608 59.9838 43.232H64.1358ZM70.9965 41.492C71.1885 41.116 71.4605 40.824 71.8125 40.616C72.1725 40.408 72.6085 40.304 73.1205 40.304V41.432H72.8325C71.6085 41.432 70.9965 42.096 70.9965 43.424V47H69.9045V40.424H70.9965V41.492ZM80.381 43.46C80.381 43.668 80.369 43.888 80.345 44.12H75.089C75.129 44.768 75.349 45.276 75.749 45.644C76.157 46.004 76.649 46.184 77.225 46.184C77.697 46.184 78.089 46.076 78.401 45.86C78.721 45.636 78.945 45.34 79.073 44.972H80.249C80.073 45.604 79.721 46.12 79.193 46.52C78.665 46.912 78.009 47.108 77.225 47.108C76.601 47.108 76.041 46.968 75.545 46.688C75.057 46.408 74.673 46.012 74.393 45.5C74.113 44.98 73.973 44.38 73.973 43.7C73.973 43.02 74.109 42.424 74.381 41.912C74.653 41.4 75.033 41.008 75.521 40.736C76.017 40.456 76.585 40.316 77.225 40.316C77.849 40.316 78.401 40.452 78.881 40.724C79.361 40.996 79.729 41.372 79.985 41.852C80.249 42.324 80.381 42.86 80.381 43.46ZM79.253 43.232C79.253 42.816 79.161 42.46 78.977 42.164C78.793 41.86 78.541 41.632 78.221 41.48C77.909 41.32 77.561 41.24 77.177 41.24C76.625 41.24 76.153 41.416 75.761 41.768C75.377 42.12 75.157 42.608 75.101 43.232H79.253ZM82.9144 41.636C83.1304 41.26 83.4504 40.948 83.8744 40.7C84.3064 40.444 84.8064 40.316 85.3744 40.316C85.9584 40.316 86.4864 40.456 86.9584 40.736C87.4384 41.016 87.8144 41.412 88.0864 41.924C88.3584 42.428 88.4944 43.016 88.4944 43.688C88.4944 44.352 88.3584 44.944 88.0864 45.464C87.8144 45.984 87.4384 46.388 86.9584 46.676C86.4864 46.964 85.9584 47.108 85.3744 47.108C84.8144 47.108 84.3184 46.984 83.8864 46.736C83.4624 46.48 83.1384 46.164 82.9144 45.788V50.12H81.8224V40.424H82.9144V41.636ZM87.3784 43.688C87.3784 43.192 87.2784 42.76 87.0784 42.392C86.8784 42.024 86.6064 41.744 86.2624 41.552C85.9264 41.36 85.5544 41.264 85.1464 41.264C84.7464 41.264 84.3744 41.364 84.0304 41.564C83.6944 41.756 83.4224 42.04 83.2144 42.416C83.0144 42.784 82.9144 43.212 82.9144 43.7C82.9144 44.196 83.0144 44.632 83.2144 45.008C83.4224 45.376 83.6944 45.66 84.0304 45.86C84.3744 46.052 84.7464 46.148 85.1464 46.148C85.5544 46.148 85.9264 46.052 86.2624 45.86C86.6064 45.66 86.8784 45.376 87.0784 45.008C87.2784 44.632 87.3784 44.192 87.3784 43.688ZM92.7998 47.108C92.1838 47.108 91.6238 46.968 91.1198 46.688C90.6238 46.408 90.2318 46.012 89.9438 45.5C89.6638 44.98 89.5238 44.38 89.5238 43.7C89.5238 43.028 89.6678 42.436 89.9558 41.924C90.2518 41.404 90.6518 41.008 91.1558 40.736C91.6598 40.456 92.2238 40.316 92.8478 40.316C93.4718 40.316 94.0358 40.456 94.5398 40.736C95.0438 41.008 95.4398 41.4 95.7278 41.912C96.0238 42.424 96.1718 43.02 96.1718 43.7C96.1718 44.38 96.0198 44.98 95.7158 45.5C95.4198 46.012 95.0158 46.408 94.5038 46.688C93.9918 46.968 93.4238 47.108 92.7998 47.108ZM92.7998 46.148C93.1918 46.148 93.5598 46.056 93.9038 45.872C94.2478 45.688 94.5238 45.412 94.7318 45.044C94.9478 44.676 95.0558 44.228 95.0558 43.7C95.0558 43.172 94.9518 42.724 94.7438 42.356C94.5358 41.988 94.2638 41.716 93.9278 41.54C93.5918 41.356 93.2278 41.264 92.8358 41.264C92.4358 41.264 92.0678 41.356 91.7318 41.54C91.4038 41.716 91.1398 41.988 90.9398 42.356C90.7398 42.724 90.6398 43.172 90.6398 43.7C90.6398 44.236 90.7358 44.688 90.9278 45.056C91.1278 45.424 91.3918 45.7 91.7198 45.884C92.0478 46.06 92.4078 46.148 92.7998 46.148ZM98.6996 41.492C98.8916 41.116 99.1636 40.824 99.5156 40.616C99.8756 40.408 100.312 40.304 100.824 40.304V41.432H100.536C99.3116 41.432 98.6996 42.096 98.6996 43.424V47H97.6076V40.424H98.6996V41.492ZM103.416 41.324V45.2C103.416 45.52 103.484 45.748 103.62 45.884C103.756 46.012 103.992 46.076 104.328 46.076H105.132V47H104.148C103.54 47 103.084 46.86 102.78 46.58C102.476 46.3 102.324 45.84 102.324 45.2V41.324H101.472V40.424H102.324V38.768H103.416V40.424H105.132V41.324H103.416ZM109.246 43.688C109.246 43.016 109.382 42.428 109.654 41.924C109.926 41.412 110.298 41.016 110.77 40.736C111.25 40.456 111.782 40.316 112.366 40.316C112.942 40.316 113.442 40.44 113.866 40.688C114.29 40.936 114.606 41.248 114.814 41.624V40.424H115.918V47H114.814V45.776C114.598 46.16 114.274 46.48 113.842 46.736C113.418 46.984 112.922 47.108 112.354 47.108C111.77 47.108 111.242 46.964 110.77 46.676C110.298 46.388 109.926 45.984 109.654 45.464C109.382 44.944 109.246 44.352 109.246 43.688ZM114.814 43.7C114.814 43.204 114.714 42.772 114.514 42.404C114.314 42.036 114.042 41.756 113.698 41.564C113.362 41.364 112.99 41.264 112.582 41.264C112.174 41.264 111.802 41.36 111.466 41.552C111.13 41.744 110.862 42.024 110.662 42.392C110.462 42.76 110.362 43.192 110.362 43.688C110.362 44.192 110.462 44.632 110.662 45.008C110.862 45.376 111.13 45.66 111.466 45.86C111.802 46.052 112.174 46.148 112.582 46.148C112.99 46.148 113.362 46.052 113.698 45.86C114.042 45.66 114.314 45.376 114.514 45.008C114.714 44.632 114.814 44.196 114.814 43.7ZM120.968 40.304C121.768 40.304 122.416 40.548 122.912 41.036C123.408 41.516 123.656 42.212 123.656 43.124V47H122.576V43.28C122.576 42.624 122.412 42.124 122.084 41.78C121.756 41.428 121.308 41.252 120.74 41.252C120.164 41.252 119.704 41.432 119.36 41.792C119.024 42.152 118.856 42.676 118.856 43.364V47H117.764V40.424H118.856V41.36C119.072 41.024 119.364 40.764 119.732 40.58C120.108 40.396 120.52 40.304 120.968 40.304ZM125.032 43.688C125.032 43.016 125.168 42.428 125.44 41.924C125.712 41.412 126.084 41.016 126.556 40.736C127.036 40.456 127.572 40.316 128.164 40.316C128.676 40.316 129.152 40.436 129.592 40.676C130.032 40.908 130.368 41.216 130.6 41.6V38.12H131.704V47H130.6V45.764C130.384 46.156 130.064 46.48 129.64 46.736C129.216 46.984 128.72 47.108 128.152 47.108C127.568 47.108 127.036 46.964 126.556 46.676C126.084 46.388 125.712 45.984 125.44 45.464C125.168 44.944 125.032 44.352 125.032 43.688ZM130.6 43.7C130.6 43.204 130.5 42.772 130.3 42.404C130.1 42.036 129.828 41.756 129.484 41.564C129.148 41.364 128.776 41.264 128.368 41.264C127.96 41.264 127.588 41.36 127.252 41.552C126.916 41.744 126.648 42.024 126.448 42.392C126.248 42.76 126.148 43.192 126.148 43.688C126.148 44.192 126.248 44.632 126.448 45.008C126.648 45.376 126.916 45.66 127.252 45.86C127.588 46.052 127.96 46.148 128.368 46.148C128.776 46.148 129.148 46.052 129.484 45.86C129.828 45.66 130.1 45.376 130.3 45.008C130.5 44.632 130.6 44.196 130.6 43.7ZM136.34 43.688C136.34 43.016 136.476 42.428 136.748 41.924C137.02 41.412 137.392 41.016 137.864 40.736C138.344 40.456 138.876 40.316 139.46 40.316C140.036 40.316 140.536 40.44 140.96 40.688C141.384 40.936 141.7 41.248 141.908 41.624V40.424H143.012V47H141.908V45.776C141.692 46.16 141.368 46.48 140.936 46.736C140.512 46.984 140.016 47.108 139.448 47.108C138.864 47.108 138.336 46.964 137.864 46.676C137.392 46.388 137.02 45.984 136.748 45.464C136.476 44.944 136.34 44.352 136.34 43.688ZM141.908 43.7C141.908 43.204 141.808 42.772 141.608 42.404C141.408 42.036 141.136 41.756 140.792 41.564C140.456 41.364 140.084 41.264 139.676 41.264C139.268 41.264 138.896 41.36 138.56 41.552C138.224 41.744 137.956 42.024 137.756 42.392C137.556 42.76 137.456 43.192 137.456 43.688C137.456 44.192 137.556 44.632 137.756 45.008C137.956 45.376 138.224 45.66 138.56 45.86C138.896 46.052 139.268 46.148 139.676 46.148C140.084 46.148 140.456 46.052 140.792 45.86C141.136 45.66 141.408 45.376 141.608 45.008C141.808 44.632 141.908 44.196 141.908 43.7ZM145.95 41.636C146.166 41.26 146.486 40.948 146.91 40.7C147.342 40.444 147.842 40.316 148.41 40.316C148.994 40.316 149.522 40.456 149.994 40.736C150.474 41.016 150.85 41.412 151.122 41.924C151.394 42.428 151.53 43.016 151.53 43.688C151.53 44.352 151.394 44.944 151.122 45.464C150.85 45.984 150.474 46.388 149.994 46.676C149.522 46.964 148.994 47.108 148.41 47.108C147.85 47.108 147.354 46.984 146.922 46.736C146.498 46.48 146.174 46.164 145.95 45.788V50.12H144.858V40.424H145.95V41.636ZM150.414 43.688C150.414 43.192 150.314 42.76 150.114 42.392C149.914 42.024 149.642 41.744 149.298 41.552C148.962 41.36 148.59 41.264 148.182 41.264C147.782 41.264 147.41 41.364 147.066 41.564C146.73 41.756 146.458 42.04 146.25 42.416C146.05 42.784 145.95 43.212 145.95 43.7C145.95 44.196 146.05 44.632 146.25 45.008C146.458 45.376 146.73 45.66 147.066 45.86C147.41 46.052 147.782 46.148 148.182 46.148C148.59 46.148 148.962 46.052 149.298 45.86C149.642 45.66 149.914 45.376 150.114 45.008C150.314 44.632 150.414 44.192 150.414 43.688ZM154.059 41.636C154.275 41.26 154.595 40.948 155.019 40.7C155.451 40.444 155.951 40.316 156.519 40.316C157.103 40.316 157.631 40.456 158.103 40.736C158.583 41.016 158.959 41.412 159.231 41.924C159.503 42.428 159.639 43.016 159.639 43.688C159.639 44.352 159.503 44.944 159.231 45.464C158.959 45.984 158.583 46.388 158.103 46.676C157.631 46.964 157.103 47.108 156.519 47.108C155.959 47.108 155.463 46.984 155.031 46.736C154.607 46.48 154.283 46.164 154.059 45.788V50.12H152.967V40.424H154.059V41.636ZM158.523 43.688C158.523 43.192 158.423 42.76 158.223 42.392C158.023 42.024 157.751 41.744 157.407 41.552C157.071 41.36 156.699 41.264 156.291 41.264C155.891 41.264 155.519 41.364 155.175 41.564C154.839 41.756 154.567 42.04 154.359 42.416C154.159 42.784 154.059 43.212 154.059 43.7C154.059 44.196 154.159 44.632 154.359 45.008C154.567 45.376 154.839 45.66 155.175 45.86C155.519 46.052 155.891 46.148 156.291 46.148C156.699 46.148 157.071 46.052 157.407 45.86C157.751 45.66 158.023 45.376 158.223 45.008C158.423 44.632 158.523 44.192 158.523 43.688ZM162.168 41.492C162.36 41.116 162.632 40.824 162.984 40.616C163.344 40.408 163.78 40.304 164.292 40.304V41.432H164.004C162.78 41.432 162.168 42.096 162.168 43.424V47H161.076V40.424H162.168V41.492ZM168.421 47.108C167.805 47.108 167.245 46.968 166.741 46.688C166.245 46.408 165.853 46.012 165.565 45.5C165.285 44.98 165.145 44.38 165.145 43.7C165.145 43.028 165.289 42.436 165.577 41.924C165.873 41.404 166.273 41.008 166.777 40.736C167.281 40.456 167.845 40.316 168.469 40.316C169.093 40.316 169.657 40.456 170.161 40.736C170.665 41.008 171.061 41.4 171.349 41.912C171.645 42.424 171.793 43.02 171.793 43.7C171.793 44.38 171.641 44.98 171.337 45.5C171.041 46.012 170.637 46.408 170.125 46.688C169.613 46.968 169.045 47.108 168.421 47.108ZM168.421 46.148C168.813 46.148 169.181 46.056 169.525 45.872C169.869 45.688 170.145 45.412 170.353 45.044C170.569 44.676 170.677 44.228 170.677 43.7C170.677 43.172 170.573 42.724 170.365 42.356C170.157 41.988 169.885 41.716 169.549 41.54C169.213 41.356 168.849 41.264 168.457 41.264C168.057 41.264 167.689 41.356 167.353 41.54C167.025 41.716 166.761 41.988 166.561 42.356C166.361 42.724 166.261 43.172 166.261 43.7C166.261 44.236 166.357 44.688 166.549 45.056C166.749 45.424 167.013 45.7 167.341 45.884C167.669 46.06 168.029 46.148 168.421 46.148ZM175.677 45.992L177.717 40.424H178.881L176.301 47H175.029L172.449 40.424H173.625L175.677 45.992ZM179.547 43.688C179.547 43.016 179.683 42.428 179.955 41.924C180.227 41.412 180.599 41.016 181.071 40.736C181.551 40.456 182.083 40.316 182.667 40.316C183.243 40.316 183.743 40.44 184.167 40.688C184.591 40.936 184.907 41.248 185.115 41.624V40.424H186.219V47H185.115V45.776C184.899 46.16 184.575 46.48 184.143 46.736C183.719 46.984 183.223 47.108 182.655 47.108C182.071 47.108 181.543 46.964 181.071 46.676C180.599 46.388 180.227 45.984 179.955 45.464C179.683 44.944 179.547 44.352 179.547 43.688ZM185.115 43.7C185.115 43.204 185.015 42.772 184.815 42.404C184.615 42.036 184.343 41.756 183.999 41.564C183.663 41.364 183.291 41.264 182.883 41.264C182.475 41.264 182.103 41.36 181.767 41.552C181.431 41.744 181.163 42.024 180.963 42.392C180.763 42.76 180.663 43.192 180.663 43.688C180.663 44.192 180.763 44.632 180.963 45.008C181.163 45.376 181.431 45.66 181.767 45.86C182.103 46.052 182.475 46.148 182.883 46.148C183.291 46.148 183.663 46.052 183.999 45.86C184.343 45.66 184.615 45.376 184.815 45.008C185.015 44.632 185.115 44.196 185.115 43.7ZM189.157 38.12V47H188.065V38.12H189.157Z" fill="white"/>
<defs>
<linearGradient id="paint0_linear_9915_79906" x1="256" y1="28" x2="8.62448e-08" y2="28" gradientUnits="userSpaceOnUse">
<stop stop-color="#05285E"/>
<stop offset="1" stop-color="#1BBABC"/>
</linearGradient>
</defs>
</svg>
