<svg width="254" height="62" viewBox="0 0 254 62" fill="none" xmlns="http://www.w3.org/2000/svg">
<rect width="254" height="62" rx="8" fill="url(#paint0_linear_9915_79902)"/>
<path d="M29.712 16.768V28H26.976V21.264L24.464 28H22.256L19.728 21.248V28H16.992V16.768H20.224L23.376 24.544L26.496 16.768H29.712ZM31.1355 23.52C31.1355 22.6027 31.3062 21.7973 31.6475 21.104C31.9995 20.4107 32.4742 19.8773 33.0715 19.504C33.6688 19.1307 34.3355 18.944 35.0715 18.944C35.7008 18.944 36.2502 19.072 36.7195 19.328C37.1995 19.584 37.5675 19.92 37.8235 20.336V19.072H40.5595V28H37.8235V26.736C37.5568 27.152 37.1835 27.488 36.7035 27.744C36.2342 28 35.6848 28.128 35.0555 28.128C34.3302 28.128 33.6688 27.9413 33.0715 27.568C32.4742 27.184 31.9995 26.6453 31.6475 25.952C31.3062 25.248 31.1355 24.4373 31.1355 23.52ZM37.8235 23.536C37.8235 22.8533 37.6315 22.3147 37.2475 21.92C36.8742 21.5253 36.4155 21.328 35.8715 21.328C35.3275 21.328 34.8635 21.5253 34.4795 21.92C34.1062 22.304 33.9195 22.8373 33.9195 23.52C33.9195 24.2027 34.1062 24.7467 34.4795 25.152C34.8635 25.5467 35.3275 25.744 35.8715 25.744C36.4155 25.744 36.8742 25.5467 37.2475 25.152C37.6315 24.7573 37.8235 24.2187 37.8235 23.536ZM43.9149 18.144C43.4349 18.144 43.0402 18.0053 42.7309 17.728C42.4322 17.44 42.2829 17.088 42.2829 16.672C42.2829 16.2453 42.4322 15.8933 42.7309 15.616C43.0402 15.328 43.4349 15.184 43.9149 15.184C44.3842 15.184 44.7682 15.328 45.0669 15.616C45.3762 15.8933 45.5309 16.2453 45.5309 16.672C45.5309 17.088 45.3762 17.44 45.0669 17.728C44.7682 18.0053 44.3842 18.144 43.9149 18.144ZM45.2749 19.072V28H42.5389V19.072H45.2749ZM52.6976 18.976C53.743 18.976 54.575 19.3173 55.1936 20C55.823 20.672 56.1376 21.6 56.1376 22.784V28H53.4176V23.152C53.4176 22.5547 53.263 22.0907 52.9536 21.76C52.6443 21.4293 52.2283 21.264 51.7056 21.264C51.183 21.264 50.767 21.4293 50.4576 21.76C50.1483 22.0907 49.9936 22.5547 49.9936 23.152V28H47.2576V19.072H49.9936V20.256C50.271 19.8613 50.6443 19.552 51.1136 19.328C51.583 19.0933 52.111 18.976 52.6976 18.976ZM71.4775 28H68.7415L64.1655 21.072V28H61.4295V16.768H64.1655L68.7415 23.728V16.768H71.4775V28ZM72.9168 23.52C72.9168 22.6027 73.0874 21.7973 73.4288 21.104C73.7808 20.4107 74.2554 19.8773 74.8528 19.504C75.4501 19.1307 76.1168 18.944 76.8528 18.944C77.4821 18.944 78.0314 19.072 78.5008 19.328C78.9808 19.584 79.3488 19.92 79.6048 20.336V19.072H82.3408V28H79.6048V26.736C79.3381 27.152 78.9648 27.488 78.4848 27.744C78.0154 28 77.4661 28.128 76.8368 28.128C76.1114 28.128 75.4501 27.9413 74.8528 27.568C74.2554 27.184 73.7808 26.6453 73.4288 25.952C73.0874 25.248 72.9168 24.4373 72.9168 23.52ZM79.6048 23.536C79.6048 22.8533 79.4128 22.3147 79.0288 21.92C78.6554 21.5253 78.1968 21.328 77.6528 21.328C77.1088 21.328 76.6448 21.5253 76.2608 21.92C75.8874 22.304 75.7008 22.8373 75.7008 23.52C75.7008 24.2027 75.8874 24.7467 76.2608 25.152C76.6448 25.5467 77.1088 25.744 77.6528 25.744C78.1968 25.744 78.6554 25.5467 79.0288 25.152C79.4128 24.7573 79.6048 24.2187 79.6048 23.536ZM88.3361 25.44L90.2721 19.072H93.1841L90.0161 28H86.6401L83.4721 19.072H86.4001L88.3361 25.44ZM95.7118 18.144C95.2318 18.144 94.8371 18.0053 94.5278 17.728C94.2291 17.44 94.0798 17.088 94.0798 16.672C94.0798 16.2453 94.2291 15.8933 94.5278 15.616C94.8371 15.328 95.2318 15.184 95.7118 15.184C96.1811 15.184 96.5651 15.328 96.8638 15.616C97.1731 15.8933 97.3278 16.2453 97.3278 16.672C97.3278 17.088 97.1731 17.44 96.8638 17.728C96.5651 18.0053 96.1811 18.144 95.7118 18.144ZM97.0718 19.072V28H94.3358V19.072H97.0718ZM102.447 18.944C103.076 18.944 103.625 19.072 104.095 19.328C104.575 19.584 104.943 19.92 105.199 20.336V19.072H107.935V27.984C107.935 28.8053 107.769 29.5467 107.439 30.208C107.119 30.88 106.623 31.4133 105.951 31.808C105.289 32.2027 104.463 32.4 103.471 32.4C102.148 32.4 101.076 32.0853 100.255 31.456C99.4332 30.8373 98.9638 29.9947 98.8465 28.928H101.551C101.636 29.2693 101.839 29.536 102.159 29.728C102.479 29.9307 102.873 30.032 103.343 30.032C103.908 30.032 104.356 29.8667 104.687 29.536C105.028 29.216 105.199 28.6987 105.199 27.984V26.72C104.932 27.136 104.564 27.4773 104.095 27.744C103.625 28 103.076 28.128 102.447 28.128C101.711 28.128 101.044 27.9413 100.447 27.568C99.8492 27.184 99.3745 26.6453 99.0225 25.952C98.6812 25.248 98.5105 24.4373 98.5105 23.52C98.5105 22.6027 98.6812 21.7973 99.0225 21.104C99.3745 20.4107 99.8492 19.8773 100.447 19.504C101.044 19.1307 101.711 18.944 102.447 18.944ZM105.199 23.536C105.199 22.8533 105.007 22.3147 104.623 21.92C104.249 21.5253 103.791 21.328 103.247 21.328C102.703 21.328 102.239 21.5253 101.855 21.92C101.481 22.304 101.295 22.8373 101.295 23.52C101.295 24.2027 101.481 24.7467 101.855 25.152C102.239 25.5467 102.703 25.744 103.247 25.744C103.791 25.744 104.249 25.5467 104.623 25.152C105.007 24.7573 105.199 24.2187 105.199 23.536ZM109.37 23.52C109.37 22.6027 109.541 21.7973 109.882 21.104C110.234 20.4107 110.709 19.8773 111.306 19.504C111.903 19.1307 112.57 18.944 113.306 18.944C113.935 18.944 114.485 19.072 114.954 19.328C115.434 19.584 115.802 19.92 116.058 20.336V19.072H118.794V28H116.058V26.736C115.791 27.152 115.418 27.488 114.938 27.744C114.469 28 113.919 28.128 113.29 28.128C112.565 28.128 111.903 27.9413 111.306 27.568C110.709 27.184 110.234 26.6453 109.882 25.952C109.541 25.248 109.37 24.4373 109.37 23.52ZM116.058 23.536C116.058 22.8533 115.866 22.3147 115.482 21.92C115.109 21.5253 114.65 21.328 114.106 21.328C113.562 21.328 113.098 21.5253 112.714 21.92C112.341 22.304 112.154 22.8373 112.154 23.52C112.154 24.2027 112.341 24.7467 112.714 25.152C113.098 25.5467 113.562 25.744 114.106 25.744C114.65 25.744 115.109 25.5467 115.482 25.152C115.866 24.7573 116.058 24.2187 116.058 23.536ZM125.749 25.68V28H124.357C123.365 28 122.592 27.76 122.037 27.28C121.483 26.7893 121.205 25.9947 121.205 24.896V21.344H120.117V19.072H121.205V16.896H123.941V19.072H125.733V21.344H123.941V24.928C123.941 25.1947 124.005 25.3867 124.133 25.504C124.261 25.6213 124.475 25.68 124.773 25.68H125.749ZM128.649 18.144C128.169 18.144 127.775 18.0053 127.465 17.728C127.167 17.44 127.017 17.088 127.017 16.672C127.017 16.2453 127.167 15.8933 127.465 15.616C127.775 15.328 128.169 15.184 128.649 15.184C129.119 15.184 129.503 15.328 129.801 15.616C130.111 15.8933 130.265 16.2453 130.265 16.672C130.265 17.088 130.111 17.44 129.801 17.728C129.503 18.0053 129.119 18.144 128.649 18.144ZM130.009 19.072V28H127.273V19.072H130.009ZM136.056 28.128C135.181 28.128 134.392 27.9413 133.688 27.568C132.995 27.1947 132.445 26.6613 132.04 25.968C131.645 25.2747 131.448 24.464 131.448 23.536C131.448 22.6187 131.651 21.8133 132.056 21.12C132.461 20.416 133.016 19.8773 133.72 19.504C134.424 19.1307 135.213 18.944 136.088 18.944C136.963 18.944 137.752 19.1307 138.456 19.504C139.16 19.8773 139.715 20.416 140.12 21.12C140.525 21.8133 140.728 22.6187 140.728 23.536C140.728 24.4533 140.52 25.264 140.104 25.968C139.699 26.6613 139.139 27.1947 138.424 27.568C137.72 27.9413 136.931 28.128 136.056 28.128ZM136.056 25.76C136.579 25.76 137.021 25.568 137.384 25.184C137.757 24.8 137.944 24.2507 137.944 23.536C137.944 22.8213 137.763 22.272 137.4 21.888C137.048 21.504 136.611 21.312 136.088 21.312C135.555 21.312 135.112 21.504 134.76 21.888C134.408 22.2613 134.232 22.8107 134.232 23.536C134.232 24.2507 134.403 24.8 134.744 25.184C135.096 25.568 135.533 25.76 136.056 25.76ZM147.62 18.976C148.665 18.976 149.497 19.3173 150.116 20C150.745 20.672 151.06 21.6 151.06 22.784V28H148.34V23.152C148.34 22.5547 148.185 22.0907 147.876 21.76C147.566 21.4293 147.15 21.264 146.628 21.264C146.105 21.264 145.689 21.4293 145.38 21.76C145.07 22.0907 144.916 22.5547 144.916 23.152V28H142.18V19.072H144.916V20.256C145.193 19.8613 145.566 19.552 146.036 19.328C146.505 19.0933 147.033 18.976 147.62 18.976Z" fill="white"/>
<path d="M23.26 41.06C23.028 40.572 22.692 40.196 22.252 39.932C21.812 39.66 21.3 39.524 20.716 39.524C20.132 39.524 19.604 39.66 19.132 39.932C18.668 40.196 18.3 40.58 18.028 41.084C17.764 41.58 17.632 42.156 17.632 42.812C17.632 43.468 17.764 44.044 18.028 44.54C18.3 45.036 18.668 45.42 19.132 45.692C19.604 45.956 20.132 46.088 20.716 46.088C21.532 46.088 22.204 45.844 22.732 45.356C23.26 44.868 23.568 44.208 23.656 43.376H20.32V42.488H24.82V43.328C24.756 44.016 24.54 44.648 24.172 45.224C23.804 45.792 23.32 46.244 22.72 46.58C22.12 46.908 21.452 47.072 20.716 47.072C19.94 47.072 19.232 46.892 18.592 46.532C17.952 46.164 17.444 45.656 17.068 45.008C16.7 44.36 16.516 43.628 16.516 42.812C16.516 41.996 16.7 41.264 17.068 40.616C17.444 39.96 17.952 39.452 18.592 39.092C19.232 38.724 19.94 38.54 20.716 38.54C21.604 38.54 22.388 38.76 23.068 39.2C23.756 39.64 24.256 40.26 24.568 41.06H23.26ZM32.2638 43.46C32.2638 43.668 32.2518 43.888 32.2278 44.12H26.9718C27.0118 44.768 27.2318 45.276 27.6318 45.644C28.0398 46.004 28.5318 46.184 29.1078 46.184C29.5798 46.184 29.9718 46.076 30.2838 45.86C30.6038 45.636 30.8278 45.34 30.9558 44.972H32.1318C31.9558 45.604 31.6038 46.12 31.0758 46.52C30.5478 46.912 29.8918 47.108 29.1078 47.108C28.4838 47.108 27.9238 46.968 27.4278 46.688C26.9398 46.408 26.5558 46.012 26.2758 45.5C25.9958 44.98 25.8558 44.38 25.8558 43.7C25.8558 43.02 25.9918 42.424 26.2638 41.912C26.5358 41.4 26.9158 41.008 27.4038 40.736C27.8998 40.456 28.4678 40.316 29.1078 40.316C29.7318 40.316 30.2838 40.452 30.7638 40.724C31.2438 40.996 31.6118 41.372 31.8678 41.852C32.1318 42.324 32.2638 42.86 32.2638 43.46ZM31.1358 43.232C31.1358 42.816 31.0438 42.46 30.8598 42.164C30.6758 41.86 30.4238 41.632 30.1038 41.48C29.7918 41.32 29.4438 41.24 29.0598 41.24C28.5078 41.24 28.0358 41.416 27.6438 41.768C27.2598 42.12 27.0398 42.608 26.9838 43.232H31.1358ZM35.0373 41.324V45.2C35.0373 45.52 35.1053 45.748 35.2413 45.884C35.3773 46.012 35.6133 46.076 35.9492 46.076H36.7533V47H35.7693C35.1613 47 34.7053 46.86 34.4013 46.58C34.0973 46.3 33.9453 45.84 33.9453 45.2V41.324H33.0933V40.424H33.9453V38.768H35.0373V40.424H36.7533V41.324H35.0373ZM46.9396 40.424L42.9796 50.096H41.8516L43.1476 46.928L40.4956 40.424H41.7076L43.7716 45.752L45.8116 40.424H46.9396ZM50.9053 47.108C50.2893 47.108 49.7293 46.968 49.2253 46.688C48.7293 46.408 48.3373 46.012 48.0493 45.5C47.7693 44.98 47.6293 44.38 47.6293 43.7C47.6293 43.028 47.7733 42.436 48.0613 41.924C48.3573 41.404 48.7573 41.008 49.2613 40.736C49.7653 40.456 50.3293 40.316 50.9533 40.316C51.5773 40.316 52.1413 40.456 52.6453 40.736C53.1493 41.008 53.5453 41.4 53.8333 41.912C54.1293 42.424 54.2773 43.02 54.2773 43.7C54.2773 44.38 54.1253 44.98 53.8213 45.5C53.5253 46.012 53.1213 46.408 52.6093 46.688C52.0973 46.968 51.5293 47.108 50.9053 47.108ZM50.9053 46.148C51.2973 46.148 51.6653 46.056 52.0093 45.872C52.3533 45.688 52.6293 45.412 52.8373 45.044C53.0533 44.676 53.1613 44.228 53.1613 43.7C53.1613 43.172 53.0573 42.724 52.8493 42.356C52.6413 41.988 52.3693 41.716 52.0333 41.54C51.6973 41.356 51.3333 41.264 50.9413 41.264C50.5413 41.264 50.1733 41.356 49.8373 41.54C49.5093 41.716 49.2453 41.988 49.0453 42.356C48.8453 42.724 48.7453 43.172 48.7453 43.7C48.7453 44.236 48.8413 44.688 49.0333 45.056C49.2333 45.424 49.4973 45.7 49.8253 45.884C50.1533 46.06 50.5133 46.148 50.9053 46.148ZM61.5451 40.424V47H60.4531V46.028C60.2451 46.364 59.9531 46.628 59.5771 46.82C59.2091 47.004 58.8011 47.096 58.3531 47.096C57.8411 47.096 57.3811 46.992 56.9731 46.784C56.5651 46.568 56.2411 46.248 56.0011 45.824C55.7691 45.4 55.6531 44.884 55.6531 44.276V40.424H56.7331V44.132C56.7331 44.78 56.8971 45.28 57.2251 45.632C57.5531 45.976 58.0011 46.148 58.5691 46.148C59.1531 46.148 59.6131 45.968 59.9491 45.608C60.2851 45.248 60.4531 44.724 60.4531 44.036V40.424H61.5451ZM64.4808 41.492C64.6728 41.116 64.9448 40.824 65.2968 40.616C65.6568 40.408 66.0928 40.304 66.6048 40.304V41.432H66.3168C65.0928 41.432 64.4808 42.096 64.4808 43.424V47H63.3888V40.424H64.4808V41.492ZM72.1566 41.636C72.3726 41.26 72.6926 40.948 73.1166 40.7C73.5486 40.444 74.0486 40.316 74.6166 40.316C75.2006 40.316 75.7286 40.456 76.2006 40.736C76.6806 41.016 77.0566 41.412 77.3286 41.924C77.6006 42.428 77.7366 43.016 77.7366 43.688C77.7366 44.352 77.6006 44.944 77.3286 45.464C77.0566 45.984 76.6806 46.388 76.2006 46.676C75.7286 46.964 75.2006 47.108 74.6166 47.108C74.0566 47.108 73.5606 46.984 73.1286 46.736C72.7046 46.48 72.3806 46.164 72.1566 45.788V50.12H71.0646V40.424H72.1566V41.636ZM76.6206 43.688C76.6206 43.192 76.5206 42.76 76.3206 42.392C76.1206 42.024 75.8486 41.744 75.5046 41.552C75.1686 41.36 74.7966 41.264 74.3886 41.264C73.9886 41.264 73.6166 41.364 73.2726 41.564C72.9366 41.756 72.6646 42.04 72.4566 42.416C72.2566 42.784 72.1566 43.212 72.1566 43.7C72.1566 44.196 72.2566 44.632 72.4566 45.008C72.6646 45.376 72.9366 45.66 73.2726 45.86C73.6166 46.052 73.9886 46.148 74.3886 46.148C74.7966 46.148 75.1686 46.052 75.5046 45.86C75.8486 45.66 76.1206 45.376 76.3206 45.008C76.5206 44.632 76.6206 44.192 76.6206 43.688ZM85.174 43.46C85.174 43.668 85.162 43.888 85.138 44.12H79.882C79.922 44.768 80.142 45.276 80.542 45.644C80.95 46.004 81.442 46.184 82.018 46.184C82.49 46.184 82.882 46.076 83.194 45.86C83.514 45.636 83.738 45.34 83.866 44.972H85.042C84.866 45.604 84.514 46.12 83.986 46.52C83.458 46.912 82.802 47.108 82.018 47.108C81.394 47.108 80.834 46.968 80.338 46.688C79.85 46.408 79.466 46.012 79.186 45.5C78.906 44.98 78.766 44.38 78.766 43.7C78.766 43.02 78.902 42.424 79.174 41.912C79.446 41.4 79.826 41.008 80.314 40.736C80.81 40.456 81.378 40.316 82.018 40.316C82.642 40.316 83.194 40.452 83.674 40.724C84.154 40.996 84.522 41.372 84.778 41.852C85.042 42.324 85.174 42.86 85.174 43.46ZM84.046 43.232C84.046 42.816 83.954 42.46 83.77 42.164C83.586 41.86 83.334 41.632 83.014 41.48C82.702 41.32 82.354 41.24 81.97 41.24C81.418 41.24 80.946 41.416 80.554 41.768C80.17 42.12 79.95 42.608 79.894 43.232H84.046ZM87.7074 41.492C87.8994 41.116 88.1714 40.824 88.5234 40.616C88.8834 40.408 89.3194 40.304 89.8314 40.304V41.432H89.5434C88.3194 41.432 87.7074 42.096 87.7074 43.424V47H86.6154V40.424H87.7074V41.492ZM93.42 47.108C92.916 47.108 92.464 47.024 92.064 46.856C91.664 46.68 91.348 46.44 91.116 46.136C90.884 45.824 90.756 45.468 90.732 45.068H91.86C91.892 45.396 92.044 45.664 92.316 45.872C92.596 46.08 92.96 46.184 93.408 46.184C93.824 46.184 94.152 46.092 94.392 45.908C94.632 45.724 94.752 45.492 94.752 45.212C94.752 44.924 94.624 44.712 94.368 44.576C94.112 44.432 93.716 44.292 93.18 44.156C92.692 44.028 92.292 43.9 91.98 43.772C91.676 43.636 91.412 43.44 91.188 43.184C90.972 42.92 90.864 42.576 90.864 42.152C90.864 41.816 90.964 41.508 91.164 41.228C91.364 40.948 91.648 40.728 92.016 40.568C92.384 40.4 92.804 40.316 93.276 40.316C94.004 40.316 94.592 40.5 95.04 40.868C95.488 41.236 95.728 41.74 95.76 42.38H94.668C94.644 42.036 94.504 41.76 94.248 41.552C94 41.344 93.664 41.24 93.24 41.24C92.848 41.24 92.536 41.324 92.304 41.492C92.072 41.66 91.956 41.88 91.956 42.152C91.956 42.368 92.024 42.548 92.16 42.692C92.304 42.828 92.48 42.94 92.688 43.028C92.904 43.108 93.2 43.2 93.576 43.304C94.048 43.432 94.432 43.56 94.728 43.688C95.024 43.808 95.276 43.992 95.484 44.24C95.7 44.488 95.812 44.812 95.82 45.212C95.82 45.572 95.72 45.896 95.52 46.184C95.32 46.472 95.036 46.7 94.668 46.868C94.308 47.028 93.892 47.108 93.42 47.108ZM100.23 47.108C99.6135 47.108 99.0535 46.968 98.5495 46.688C98.0535 46.408 97.6615 46.012 97.3735 45.5C97.0935 44.98 96.9535 44.38 96.9535 43.7C96.9535 43.028 97.0975 42.436 97.3855 41.924C97.6815 41.404 98.0815 41.008 98.5855 40.736C99.0895 40.456 99.6535 40.316 100.278 40.316C100.902 40.316 101.466 40.456 101.97 40.736C102.474 41.008 102.87 41.4 103.158 41.912C103.454 42.424 103.602 43.02 103.602 43.7C103.602 44.38 103.45 44.98 103.146 45.5C102.85 46.012 102.446 46.408 101.934 46.688C101.422 46.968 100.854 47.108 100.23 47.108ZM100.23 46.148C100.622 46.148 100.99 46.056 101.334 45.872C101.678 45.688 101.954 45.412 102.162 45.044C102.378 44.676 102.486 44.228 102.486 43.7C102.486 43.172 102.382 42.724 102.174 42.356C101.966 41.988 101.694 41.716 101.358 41.54C101.022 41.356 100.658 41.264 100.266 41.264C99.8655 41.264 99.4975 41.356 99.1615 41.54C98.8335 41.716 98.5695 41.988 98.3695 42.356C98.1695 42.724 98.0695 43.172 98.0695 43.7C98.0695 44.236 98.1655 44.688 98.3575 45.056C98.5575 45.424 98.8215 45.7 99.1495 45.884C99.4775 46.06 99.8375 46.148 100.23 46.148ZM108.241 40.304C109.041 40.304 109.689 40.548 110.185 41.036C110.681 41.516 110.929 42.212 110.929 43.124V47H109.849V43.28C109.849 42.624 109.685 42.124 109.357 41.78C109.029 41.428 108.581 41.252 108.013 41.252C107.437 41.252 106.977 41.432 106.633 41.792C106.297 42.152 106.129 42.676 106.129 43.364V47H105.037V40.424H106.129V41.36C106.345 41.024 106.637 40.764 107.005 40.58C107.381 40.396 107.793 40.304 108.241 40.304ZM112.305 43.688C112.305 43.016 112.441 42.428 112.713 41.924C112.985 41.412 113.357 41.016 113.829 40.736C114.309 40.456 114.841 40.316 115.425 40.316C116.001 40.316 116.501 40.44 116.925 40.688C117.349 40.936 117.665 41.248 117.873 41.624V40.424H118.977V47H117.873V45.776C117.657 46.16 117.333 46.48 116.901 46.736C116.477 46.984 115.981 47.108 115.413 47.108C114.829 47.108 114.301 46.964 113.829 46.676C113.357 46.388 112.985 45.984 112.713 45.464C112.441 44.944 112.305 44.352 112.305 43.688ZM117.873 43.7C117.873 43.204 117.773 42.772 117.573 42.404C117.373 42.036 117.101 41.756 116.757 41.564C116.421 41.364 116.049 41.264 115.641 41.264C115.233 41.264 114.861 41.36 114.525 41.552C114.189 41.744 113.921 42.024 113.721 42.392C113.521 42.76 113.421 43.192 113.421 43.688C113.421 44.192 113.521 44.632 113.721 45.008C113.921 45.376 114.189 45.66 114.525 45.86C114.861 46.052 115.233 46.148 115.641 46.148C116.049 46.148 116.421 46.052 116.757 45.86C117.101 45.66 117.373 45.376 117.573 45.008C117.773 44.632 117.873 44.196 117.873 43.7ZM121.914 38.12V47H120.822V38.12H121.914ZM128.067 41.492C128.259 41.116 128.531 40.824 128.883 40.616C129.243 40.408 129.679 40.304 130.191 40.304V41.432H129.903C128.679 41.432 128.067 42.096 128.067 43.424V47H126.975V40.424H128.067V41.492ZM137.451 43.46C137.451 43.668 137.439 43.888 137.415 44.12H132.159C132.199 44.768 132.419 45.276 132.819 45.644C133.227 46.004 133.719 46.184 134.295 46.184C134.767 46.184 135.159 46.076 135.471 45.86C135.791 45.636 136.015 45.34 136.143 44.972H137.319C137.143 45.604 136.791 46.12 136.263 46.52C135.735 46.912 135.079 47.108 134.295 47.108C133.671 47.108 133.111 46.968 132.615 46.688C132.127 46.408 131.743 46.012 131.463 45.5C131.183 44.98 131.043 44.38 131.043 43.7C131.043 43.02 131.179 42.424 131.451 41.912C131.723 41.4 132.103 41.008 132.591 40.736C133.087 40.456 133.655 40.316 134.295 40.316C134.919 40.316 135.471 40.452 135.951 40.724C136.431 40.996 136.799 41.372 137.055 41.852C137.319 42.324 137.451 42.86 137.451 43.46ZM136.323 43.232C136.323 42.816 136.231 42.46 136.047 42.164C135.863 41.86 135.611 41.632 135.291 41.48C134.979 41.32 134.631 41.24 134.247 41.24C133.695 41.24 133.223 41.416 132.831 41.768C132.447 42.12 132.227 42.608 132.171 43.232H136.323ZM138.485 43.7C138.485 43.02 138.621 42.428 138.893 41.924C139.165 41.412 139.541 41.016 140.021 40.736C140.509 40.456 141.065 40.316 141.689 40.316C142.497 40.316 143.161 40.512 143.681 40.904C144.209 41.296 144.557 41.84 144.725 42.536H143.549C143.437 42.136 143.217 41.82 142.889 41.588C142.569 41.356 142.169 41.24 141.689 41.24C141.065 41.24 140.561 41.456 140.177 41.888C139.793 42.312 139.601 42.916 139.601 43.7C139.601 44.492 139.793 45.104 140.177 45.536C140.561 45.968 141.065 46.184 141.689 46.184C142.169 46.184 142.569 46.072 142.889 45.848C143.209 45.624 143.429 45.304 143.549 44.888H144.725C144.549 45.56 144.197 46.1 143.669 46.508C143.141 46.908 142.481 47.108 141.689 47.108C141.065 47.108 140.509 46.968 140.021 46.688C139.541 46.408 139.165 46.012 138.893 45.5C138.621 44.988 138.485 44.388 138.485 43.7ZM149.05 47.108C148.434 47.108 147.874 46.968 147.37 46.688C146.874 46.408 146.482 46.012 146.194 45.5C145.914 44.98 145.774 44.38 145.774 43.7C145.774 43.028 145.918 42.436 146.206 41.924C146.502 41.404 146.902 41.008 147.406 40.736C147.91 40.456 148.474 40.316 149.098 40.316C149.722 40.316 150.286 40.456 150.79 40.736C151.294 41.008 151.69 41.4 151.978 41.912C152.274 42.424 152.422 43.02 152.422 43.7C152.422 44.38 152.27 44.98 151.966 45.5C151.67 46.012 151.266 46.408 150.754 46.688C150.242 46.968 149.674 47.108 149.05 47.108ZM149.05 46.148C149.442 46.148 149.81 46.056 150.154 45.872C150.498 45.688 150.774 45.412 150.982 45.044C151.198 44.676 151.306 44.228 151.306 43.7C151.306 43.172 151.202 42.724 150.994 42.356C150.786 41.988 150.514 41.716 150.178 41.54C149.842 41.356 149.478 41.264 149.086 41.264C148.686 41.264 148.318 41.356 147.982 41.54C147.654 41.716 147.39 41.988 147.19 42.356C146.99 42.724 146.89 43.172 146.89 43.7C146.89 44.236 146.986 44.688 147.178 45.056C147.378 45.424 147.642 45.7 147.97 45.884C148.298 46.06 148.658 46.148 149.05 46.148ZM154.95 41.492C155.142 41.116 155.414 40.824 155.766 40.616C156.126 40.408 156.562 40.304 157.074 40.304V41.432H156.786C155.562 41.432 154.95 42.096 154.95 43.424V47H153.858V40.424H154.95V41.492ZM157.926 43.688C157.926 43.016 158.062 42.428 158.334 41.924C158.606 41.412 158.978 41.016 159.45 40.736C159.93 40.456 160.466 40.316 161.058 40.316C161.57 40.316 162.046 40.436 162.486 40.676C162.926 40.908 163.262 41.216 163.494 41.6V38.12H164.598V47H163.494V45.764C163.278 46.156 162.958 46.48 162.534 46.736C162.11 46.984 161.614 47.108 161.046 47.108C160.462 47.108 159.93 46.964 159.45 46.676C158.978 46.388 158.606 45.984 158.334 45.464C158.062 44.944 157.926 44.352 157.926 43.688ZM163.494 43.7C163.494 43.204 163.394 42.772 163.194 42.404C162.994 42.036 162.722 41.756 162.378 41.564C162.042 41.364 161.67 41.264 161.262 41.264C160.854 41.264 160.482 41.36 160.146 41.552C159.81 41.744 159.542 42.024 159.342 42.392C159.142 42.76 159.042 43.192 159.042 43.688C159.042 44.192 159.142 44.632 159.342 45.008C159.542 45.376 159.81 45.66 160.146 45.86C160.482 46.052 160.854 46.148 161.262 46.148C161.67 46.148 162.042 46.052 162.378 45.86C162.722 45.66 162.994 45.376 163.194 45.008C163.394 44.632 163.494 44.196 163.494 43.7ZM172.907 40.304C173.403 40.304 173.851 40.412 174.251 40.628C174.651 40.836 174.963 41.152 175.187 41.576C175.419 42 175.535 42.516 175.535 43.124V47H174.455V43.28C174.455 42.624 174.291 42.124 173.963 41.78C173.635 41.428 173.187 41.252 172.619 41.252C172.043 41.252 171.583 41.432 171.239 41.792C170.903 42.152 170.735 42.676 170.735 43.364V47H169.643V38.12H170.735V41.36C170.951 41.024 171.247 40.764 171.623 40.58C172.007 40.396 172.435 40.304 172.907 40.304ZM183.319 43.46C183.319 43.668 183.307 43.888 183.283 44.12H178.027C178.067 44.768 178.287 45.276 178.687 45.644C179.095 46.004 179.587 46.184 180.163 46.184C180.635 46.184 181.027 46.076 181.339 45.86C181.659 45.636 181.883 45.34 182.011 44.972H183.187C183.011 45.604 182.659 46.12 182.131 46.52C181.603 46.912 180.947 47.108 180.163 47.108C179.539 47.108 178.979 46.968 178.483 46.688C177.995 46.408 177.611 46.012 177.331 45.5C177.051 44.98 176.911 44.38 176.911 43.7C176.911 43.02 177.047 42.424 177.319 41.912C177.591 41.4 177.971 41.008 178.459 40.736C178.955 40.456 179.523 40.316 180.163 40.316C180.787 40.316 181.339 40.452 181.819 40.724C182.299 40.996 182.667 41.372 182.923 41.852C183.187 42.324 183.319 42.86 183.319 43.46ZM182.191 43.232C182.191 42.816 182.099 42.46 181.915 42.164C181.731 41.86 181.479 41.632 181.159 41.48C180.847 41.32 180.499 41.24 180.115 41.24C179.563 41.24 179.091 41.416 178.699 41.768C178.315 42.12 178.095 42.608 178.039 43.232H182.191ZM185.852 41.492C186.044 41.116 186.316 40.824 186.668 40.616C187.028 40.408 187.464 40.304 187.976 40.304V41.432H187.688C186.464 41.432 185.852 42.096 185.852 43.424V47H184.76V40.424H185.852V41.492ZM195.237 43.46C195.237 43.668 195.225 43.888 195.201 44.12H189.945C189.985 44.768 190.205 45.276 190.605 45.644C191.013 46.004 191.505 46.184 192.081 46.184C192.553 46.184 192.945 46.076 193.257 45.86C193.577 45.636 193.801 45.34 193.929 44.972H195.105C194.929 45.604 194.577 46.12 194.049 46.52C193.521 46.912 192.865 47.108 192.081 47.108C191.457 47.108 190.897 46.968 190.401 46.688C189.913 46.408 189.529 46.012 189.249 45.5C188.969 44.98 188.829 44.38 188.829 43.7C188.829 43.02 188.965 42.424 189.237 41.912C189.509 41.4 189.889 41.008 190.377 40.736C190.873 40.456 191.441 40.316 192.081 40.316C192.705 40.316 193.257 40.452 193.737 40.724C194.217 40.996 194.585 41.372 194.841 41.852C195.105 42.324 195.237 42.86 195.237 43.46ZM194.109 43.232C194.109 42.816 194.017 42.46 193.833 42.164C193.649 41.86 193.397 41.632 193.077 41.48C192.765 41.32 192.417 41.24 192.033 41.24C191.481 41.24 191.009 41.416 190.617 41.768C190.233 42.12 190.013 42.608 189.957 43.232H194.109Z" fill="white"/>
<defs>
<linearGradient id="paint0_linear_9915_79902" x1="256" y1="28" x2="8.62448e-08" y2="28" gradientUnits="userSpaceOnUse">
<stop stop-color="#05285E"/>
<stop offset="1" stop-color="#1BBABC"/>
</linearGradient>
</defs>
</svg>
