<svg width="16" height="16" viewBox="0 0 16 16" fill="none" xmlns="http://www.w3.org/2000/svg">
<path d="M5.78125 9.55331C5.78125 10.4133 6.44125 11.1066 7.26125 11.1066H8.93458C9.64792 11.1066 10.2279 10.5 10.2279 9.75331C10.2279 8.93998 9.87458 8.65331 9.34792 8.46664L6.66125 7.53331C6.13458 7.34664 5.78125 7.05998 5.78125 6.24664C5.78125 5.49998 6.36125 4.89331 7.07458 4.89331H8.74792C9.56792 4.89331 10.2279 5.58664 10.2279 6.44664" stroke="black" stroke-width="1.5" stroke-linecap="round" stroke-linejoin="round"/>
<path d="M8 4V12" stroke="black" stroke-width="1.5" stroke-linecap="round" stroke-linejoin="round"/>
<path d="M6.00065 14.6666C2.66732 14.6666 1.33398 13.3333 1.33398 9.99992V5.99992C1.33398 2.66659 2.66732 1.33325 6.00065 1.33325H10.0007C13.334 1.33325 14.6673 2.66659 14.6673 5.99992V9.99992C14.6673 13.3333 13.334 14.6666 10.0007 14.6666H6.00065Z" stroke="black" stroke-width="1.5" stroke-linecap="round" stroke-linejoin="round"/>
</svg>
