<svg width="139" height="18" viewBox="0 0 139 18" fill="none" xmlns="http://www.w3.org/2000/svg">
<circle cx="3" cy="9" r="3" fill="#05285E"/>
<path d="M20.1721 11.296H16.6801L16.0801 13H14.6521L17.6401 4.648H19.2241L22.2121 13H20.7721L20.1721 11.296ZM19.7881 10.18L18.4321 6.304L17.0641 10.18H19.7881ZM23.0553 9.688C23.0553 9.008 23.1913 8.412 23.4633 7.9C23.7433 7.38 24.1273 6.98 24.6153 6.7C25.1033 6.42 25.6633 6.28 26.2953 6.28C27.0953 6.28 27.7553 6.472 28.2753 6.856C28.8033 7.232 29.1593 7.772 29.3433 8.476H27.8673C27.7473 8.148 27.5553 7.892 27.2913 7.708C27.0273 7.524 26.6953 7.432 26.2953 7.432C25.7353 7.432 25.2873 7.632 24.9513 8.032C24.6233 8.424 24.4593 8.976 24.4593 9.688C24.4593 10.4 24.6233 10.956 24.9513 11.356C25.2873 11.756 25.7353 11.956 26.2953 11.956C27.0873 11.956 27.6113 11.608 27.8673 10.912H29.3433C29.1513 11.584 28.7913 12.12 28.2633 12.52C27.7353 12.912 27.0793 13.108 26.2953 13.108C25.6633 13.108 25.1033 12.968 24.6153 12.688C24.1273 12.4 23.7433 12 23.4633 11.488C23.1913 10.968 23.0553 10.368 23.0553 9.688ZM32.3026 7.504V11.164C32.3026 11.412 32.3586 11.592 32.4706 11.704C32.5906 11.808 32.7906 11.86 33.0706 11.86H33.9106V13H32.8306C32.2146 13 31.7426 12.856 31.4146 12.568C31.0866 12.28 30.9226 11.812 30.9226 11.164V7.504H30.1426V6.388H30.9226V4.744H32.3026V6.388H33.9106V7.504H32.3026ZM35.8675 5.512C35.6195 5.512 35.4115 5.428 35.2435 5.26C35.0755 5.092 34.9915 4.884 34.9915 4.636C34.9915 4.388 35.0755 4.18 35.2435 4.012C35.4115 3.844 35.6195 3.76 35.8675 3.76C36.1075 3.76 36.3115 3.844 36.4795 4.012C36.6475 4.18 36.7315 4.388 36.7315 4.636C36.7315 4.884 36.6475 5.092 36.4795 5.26C36.3115 5.428 36.1075 5.512 35.8675 5.512ZM36.5395 6.388V13H35.1715V6.388H36.5395ZM40.8915 11.776L42.7635 6.388H44.2155L41.6955 13H40.0635L37.5555 6.388H39.0195L40.8915 11.776ZM51.3096 9.532C51.3096 9.78 51.2936 10.004 51.2616 10.204H46.2096C46.2496 10.732 46.4456 11.156 46.7976 11.476C47.1496 11.796 47.5816 11.956 48.0936 11.956C48.8296 11.956 49.3496 11.648 49.6536 11.032H51.1296C50.9296 11.64 50.5656 12.14 50.0376 12.532C49.5176 12.916 48.8696 13.108 48.0936 13.108C47.4616 13.108 46.8936 12.968 46.3896 12.688C45.8936 12.4 45.5016 12 45.2136 11.488C44.9336 10.968 44.7936 10.368 44.7936 9.688C44.7936 9.008 44.9296 8.412 45.2016 7.9C45.4816 7.38 45.8696 6.98 46.3656 6.7C46.8696 6.42 47.4456 6.28 48.0936 6.28C48.7176 6.28 49.2736 6.416 49.7616 6.688C50.2496 6.96 50.6296 7.344 50.9016 7.84C51.1736 8.328 51.3096 8.892 51.3096 9.532ZM49.8816 9.1C49.8736 8.596 49.6936 8.192 49.3416 7.888C48.9896 7.584 48.5536 7.432 48.0336 7.432C47.5616 7.432 47.1576 7.584 46.8216 7.888C46.4856 8.184 46.2856 8.588 46.2216 9.1H49.8816Z" fill="#05285E"/>
<circle cx="71" cy="9" r="3" fill="#1ECFCA"/>
<path d="M87.7183 13L85.7983 9.664H84.7543V13H83.3863V4.66H86.2663C86.9063 4.66 87.4463 4.772 87.8863 4.996C88.3343 5.22 88.6663 5.52 88.8823 5.896C89.1063 6.272 89.2183 6.692 89.2183 7.156C89.2183 7.7 89.0583 8.196 88.7383 8.644C88.4263 9.084 87.9423 9.384 87.2863 9.544L89.3503 13H87.7183ZM84.7543 8.572H86.2663C86.7783 8.572 87.1623 8.444 87.4183 8.188C87.6823 7.932 87.8143 7.588 87.8143 7.156C87.8143 6.724 87.6863 6.388 87.4303 6.148C87.1743 5.9 86.7863 5.776 86.2663 5.776H84.7543V8.572ZM97.0284 9.532C97.0284 9.78 97.0124 10.004 96.9804 10.204H91.9284C91.9684 10.732 92.1644 11.156 92.5164 11.476C92.8684 11.796 93.3004 11.956 93.8124 11.956C94.5484 11.956 95.0684 11.648 95.3724 11.032H96.8484C96.6484 11.64 96.2844 12.14 95.7564 12.532C95.2364 12.916 94.5884 13.108 93.8124 13.108C93.1804 13.108 92.6124 12.968 92.1084 12.688C91.6124 12.4 91.2204 12 90.9324 11.488C90.6524 10.968 90.5124 10.368 90.5124 9.688C90.5124 9.008 90.6484 8.412 90.9204 7.9C91.2004 7.38 91.5884 6.98 92.0844 6.7C92.5884 6.42 93.1644 6.28 93.8124 6.28C94.4364 6.28 94.9924 6.416 95.4804 6.688C95.9684 6.96 96.3484 7.344 96.6204 7.84C96.8924 8.328 97.0284 8.892 97.0284 9.532ZM95.6004 9.1C95.5924 8.596 95.4124 8.192 95.0604 7.888C94.7084 7.584 94.2724 7.432 93.7524 7.432C93.2804 7.432 92.8764 7.584 92.5404 7.888C92.2044 8.184 92.0044 8.588 91.9404 9.1H95.6004ZM100.775 13.108C100.255 13.108 99.7866 13.016 99.3706 12.832C98.9626 12.64 98.6386 12.384 98.3986 12.064C98.1586 11.736 98.0306 11.372 98.0146 10.972H99.4306C99.4546 11.252 99.5866 11.488 99.8266 11.68C100.075 11.864 100.383 11.956 100.751 11.956C101.135 11.956 101.431 11.884 101.639 11.74C101.855 11.588 101.963 11.396 101.963 11.164C101.963 10.916 101.843 10.732 101.603 10.612C101.371 10.492 100.999 10.36 100.487 10.216C99.9906 10.08 99.5866 9.948 99.2746 9.82C98.9626 9.692 98.6906 9.496 98.4586 9.232C98.2346 8.968 98.1226 8.62 98.1226 8.188C98.1226 7.836 98.2266 7.516 98.4346 7.228C98.6426 6.932 98.9386 6.7 99.3226 6.532C99.7146 6.364 100.163 6.28 100.667 6.28C101.419 6.28 102.023 6.472 102.479 6.856C102.943 7.232 103.191 7.748 103.223 8.404H101.855C101.831 8.108 101.711 7.872 101.495 7.696C101.279 7.52 100.987 7.432 100.619 7.432C100.259 7.432 99.9826 7.5 99.7906 7.636C99.5986 7.772 99.5026 7.952 99.5026 8.176C99.5026 8.352 99.5666 8.5 99.6946 8.62C99.8226 8.74 99.9786 8.836 100.163 8.908C100.347 8.972 100.619 9.056 100.979 9.16C101.459 9.288 101.851 9.42 102.155 9.556C102.467 9.684 102.735 9.876 102.959 10.132C103.183 10.388 103.299 10.728 103.307 11.152C103.307 11.528 103.203 11.864 102.995 12.16C102.787 12.456 102.491 12.688 102.107 12.856C101.731 13.024 101.287 13.108 100.775 13.108ZM105.481 5.512C105.233 5.512 105.025 5.428 104.857 5.26C104.689 5.092 104.605 4.884 104.605 4.636C104.605 4.388 104.689 4.18 104.857 4.012C105.025 3.844 105.233 3.76 105.481 3.76C105.721 3.76 105.925 3.844 106.093 4.012C106.261 4.18 106.345 4.388 106.345 4.636C106.345 4.884 106.261 5.092 106.093 5.26C105.925 5.428 105.721 5.512 105.481 5.512ZM106.153 6.388V13H104.785V6.388H106.153ZM110.613 6.28C111.125 6.28 111.577 6.384 111.969 6.592C112.369 6.792 112.681 7.044 112.905 7.348V6.388H114.285V13.108C114.285 13.716 114.157 14.256 113.901 14.728C113.645 15.208 113.273 15.584 112.785 15.856C112.305 16.128 111.729 16.264 111.057 16.264C110.161 16.264 109.417 16.052 108.825 15.628C108.233 15.212 107.897 14.644 107.817 13.924H109.173C109.277 14.268 109.497 14.544 109.833 14.752C110.177 14.968 110.585 15.076 111.057 15.076C111.609 15.076 112.053 14.908 112.389 14.572C112.733 14.236 112.905 13.748 112.905 13.108V12.004C112.673 12.316 112.357 12.58 111.957 12.796C111.565 13.004 111.117 13.108 110.613 13.108C110.037 13.108 109.509 12.964 109.029 12.676C108.557 12.38 108.181 11.972 107.901 11.452C107.629 10.924 107.493 10.328 107.493 9.664C107.493 9 107.629 8.412 107.901 7.9C108.181 7.388 108.557 6.992 109.029 6.712C109.509 6.424 110.037 6.28 110.613 6.28ZM112.905 9.688C112.905 9.232 112.809 8.836 112.617 8.5C112.433 8.164 112.189 7.908 111.885 7.732C111.581 7.556 111.253 7.468 110.901 7.468C110.549 7.468 110.221 7.556 109.917 7.732C109.613 7.9 109.365 8.152 109.173 8.488C108.989 8.816 108.897 9.208 108.897 9.664C108.897 10.12 108.989 10.52 109.173 10.864C109.365 11.208 109.613 11.472 109.917 11.656C110.229 11.832 110.557 11.92 110.901 11.92C111.253 11.92 111.581 11.832 111.885 11.656C112.189 11.48 112.433 11.224 112.617 10.888C112.809 10.544 112.905 10.144 112.905 9.688ZM119.418 6.28C119.938 6.28 120.402 6.388 120.81 6.604C121.226 6.82 121.55 7.14 121.782 7.564C122.014 7.988 122.13 8.5 122.13 9.1V13H120.774V9.304C120.774 8.712 120.626 8.26 120.33 7.948C120.034 7.628 119.63 7.468 119.118 7.468C118.606 7.468 118.198 7.628 117.894 7.948C117.598 8.26 117.45 8.712 117.45 9.304V13H116.082V6.388H117.45V7.144C117.674 6.872 117.958 6.66 118.302 6.508C118.654 6.356 119.026 6.28 119.418 6.28ZM129.935 9.532C129.935 9.78 129.919 10.004 129.887 10.204H124.835C124.875 10.732 125.071 11.156 125.423 11.476C125.775 11.796 126.207 11.956 126.719 11.956C127.455 11.956 127.975 11.648 128.279 11.032H129.755C129.555 11.64 129.191 12.14 128.663 12.532C128.143 12.916 127.495 13.108 126.719 13.108C126.087 13.108 125.519 12.968 125.015 12.688C124.519 12.4 124.127 12 123.839 11.488C123.559 10.968 123.419 10.368 123.419 9.688C123.419 9.008 123.555 8.412 123.827 7.9C124.107 7.38 124.495 6.98 124.991 6.7C125.495 6.42 126.071 6.28 126.719 6.28C127.343 6.28 127.899 6.416 128.387 6.688C128.875 6.96 129.255 7.344 129.527 7.84C129.799 8.328 129.935 8.892 129.935 9.532ZM128.507 9.1C128.499 8.596 128.319 8.192 127.967 7.888C127.615 7.584 127.179 7.432 126.659 7.432C126.187 7.432 125.783 7.584 125.447 7.888C125.111 8.184 124.911 8.588 124.847 9.1H128.507ZM130.825 9.664C130.825 9 130.961 8.412 131.233 7.9C131.513 7.388 131.889 6.992 132.361 6.712C132.841 6.424 133.373 6.28 133.957 6.28C134.389 6.28 134.813 6.376 135.229 6.568C135.653 6.752 135.989 7 136.237 7.312V4.12H137.617V13H136.237V12.004C136.013 12.324 135.701 12.588 135.301 12.796C134.909 13.004 134.457 13.108 133.945 13.108C133.369 13.108 132.841 12.964 132.361 12.676C131.889 12.38 131.513 11.972 131.233 11.452C130.961 10.924 130.825 10.328 130.825 9.664ZM136.237 9.688C136.237 9.232 136.141 8.836 135.949 8.5C135.765 8.164 135.521 7.908 135.217 7.732C134.913 7.556 134.585 7.468 134.233 7.468C133.881 7.468 133.553 7.556 133.249 7.732C132.945 7.9 132.697 8.152 132.505 8.488C132.321 8.816 132.229 9.208 132.229 9.664C132.229 10.12 132.321 10.52 132.505 10.864C132.697 11.208 132.945 11.472 133.249 11.656C133.561 11.832 133.889 11.92 134.233 11.92C134.585 11.92 134.913 11.832 135.217 11.656C135.521 11.48 135.765 11.224 135.949 10.888C136.141 10.544 136.237 10.144 136.237 9.688Z" fill="#05285E"/>
</svg>
