<svg width="16" height="16" viewBox="0 0 16 16" fill="none" xmlns="http://www.w3.org/2000/svg">
<path d="M2.64648 6.66675V12.0001C2.64648 14.0001 3.31315 14.6667 5.31315 14.6667H10.6465C12.6465 14.6667 13.3132 14.0001 13.3132 12.0001V6.66675H2.64648Z" stroke="black" stroke-width="1.5" stroke-linecap="round" stroke-linejoin="round"/>
<path d="M14.3327 5.33325C14.3327 6.06659 13.9793 6.66659 12.9993 6.66659H2.99935C1.97935 6.66659 1.66602 6.06659 1.66602 5.33325V4.66659C1.66602 3.93325 1.97935 3.33325 2.99935 3.33325H12.9993C13.9793 3.33325 14.3327 3.93325 14.3327 4.66659V5.33325Z" stroke="black" stroke-width="1.5" stroke-linecap="round" stroke-linejoin="round"/>
<path d="M4.07921 3.33329C3.85254 3.08663 3.85921 2.70663 4.09921 2.46663L5.04587 1.51996C5.29254 1.27329 5.69921 1.27329 5.94587 1.51996L7.75921 3.33329H4.07921Z" stroke="black" stroke-width="1.5" stroke-linecap="round" stroke-linejoin="round"/>
<path d="M8.23242 3.33329L10.0458 1.51996C10.2924 1.27329 10.6991 1.27329 10.9458 1.51996L11.8924 2.46663C12.1324 2.70663 12.1391 3.08663 11.9124 3.33329H8.23242Z" stroke="black" stroke-width="1.5" stroke-linecap="round" stroke-linejoin="round"/>
<path d="M5.96094 10.0934C5.96094 10.6267 6.5476 10.9401 6.99427 10.6534L7.62094 10.2401C7.8476 10.0934 8.13427 10.0934 8.35427 10.2401L8.9476 10.6401C9.3876 10.9334 9.98094 10.6201 9.98094 10.0867V6.66675H5.96094V10.0934Z" stroke="black" stroke-width="1.5" stroke-linecap="round" stroke-linejoin="round"/>
</svg>
