<svg width="227" height="227" viewBox="0 0 227 227" fill="none" xmlns="http://www.w3.org/2000/svg">
<mask id="path-1-inside-1_9915_79670" fill="white">
<path d="M110.309 33.3066C126.788 32.6506 143.07 37.0877 156.938 46.014C170.806 54.9403 181.588 67.9225 187.816 83.1941C194.043 98.4657 195.415 115.285 191.744 131.364C188.073 147.443 179.537 162 167.299 173.056L142.532 145.639C149.137 139.673 153.743 131.817 155.724 123.14C157.705 114.463 156.965 105.387 153.604 97.1456C150.243 88.9044 144.425 81.8987 136.941 77.0817C129.458 72.2647 120.671 69.8703 111.778 70.2243L110.309 33.3066Z"/>
</mask>
<path d="M110.309 33.3066C126.788 32.6506 143.07 37.0877 156.938 46.014C170.806 54.9403 181.588 67.9225 187.816 83.1941C194.043 98.4657 195.415 115.285 191.744 131.364C188.073 147.443 179.537 162 167.299 173.056L142.532 145.639C149.137 139.673 153.743 131.817 155.724 123.14C157.705 114.463 156.965 105.387 153.604 97.1456C150.243 88.9044 144.425 81.8987 136.941 77.0817C129.458 72.2647 120.671 69.8703 111.778 70.2243L110.309 33.3066Z" fill="#1ECFCA" stroke="white" stroke-width="2" mask="url(#path-1-inside-1_9915_79670)"/>
<mask id="path-2-inside-2_9915_79670" fill="white">
<path d="M170.25 170.25C160.917 179.583 149.427 186.47 136.797 190.301C124.167 194.132 110.787 194.789 97.8427 192.215C84.898 189.64 72.7881 183.912 62.5857 175.539C52.3833 167.166 44.4033 156.406 39.3526 144.213C34.3018 132.019 32.3362 118.768 33.6298 105.633C34.9235 92.4987 39.4365 79.8858 46.7691 68.9118C54.1016 57.9378 64.0274 48.9416 75.6673 42.72C87.3071 36.4984 100.302 33.2434 113.5 33.2434L113.5 70.1903C106.378 70.1903 99.3653 71.9468 93.084 75.3043C86.8026 78.6617 81.4463 83.5164 77.4893 89.4384C73.5324 95.3604 71.097 102.167 70.3989 109.255C69.7008 116.343 70.7615 123.494 73.4871 130.074C76.2127 136.654 80.519 142.46 86.0246 146.979C91.5303 151.497 98.0652 154.588 105.051 155.977C112.036 157.367 119.256 157.012 126.072 154.945C132.888 152.877 139.088 149.161 144.125 144.125L170.25 170.25Z"/>
</mask>
<path d="M170.25 170.25C160.917 179.583 149.427 186.47 136.797 190.301C124.167 194.132 110.787 194.789 97.8427 192.215C84.898 189.64 72.7881 183.912 62.5857 175.539C52.3833 167.166 44.4033 156.406 39.3526 144.213C34.3018 132.019 32.3362 118.768 33.6298 105.633C34.9235 92.4987 39.4365 79.8858 46.7691 68.9118C54.1016 57.9378 64.0274 48.9416 75.6673 42.72C87.3071 36.4984 100.302 33.2434 113.5 33.2434L113.5 70.1903C106.378 70.1903 99.3653 71.9468 93.084 75.3043C86.8026 78.6617 81.4463 83.5164 77.4893 89.4384C73.5324 95.3604 71.097 102.167 70.3989 109.255C69.7008 116.343 70.7615 123.494 73.4871 130.074C76.2127 136.654 80.519 142.46 86.0246 146.979C91.5303 151.497 98.0652 154.588 105.051 155.977C112.036 157.367 119.256 157.012 126.072 154.945C132.888 152.877 139.088 149.161 144.125 144.125L170.25 170.25Z" fill="#05285E" stroke="white" stroke-width="2" mask="url(#path-2-inside-2_9915_79670)"/>
</svg>
