<svg width="147" height="16" viewBox="0 0 147 16" fill="none" xmlns="http://www.w3.org/2000/svg">
<path d="M4.02503 0.114258L9.29736 10.6061L14.548 0.114258H17.7213V15.9092H15.2319L15.2103 4.10835L10.1646 14.2611H8.40846L3.36279 4.10835V15.9092H0.828125V0.114258H4.02503Z" fill="white"/>
<path d="M28.4941 10.6515V15.9092H25.8235V10.7422L19.8652 0.114258H22.5812L27.148 7.80671L31.622 0.114258H34.3597L28.4941 10.6515Z" fill="white"/>
<path d="M41.528 2.50567C39.9532 2.50567 38.9264 3.09315 38.9264 4.15377C38.9264 7.60572 47.5553 5.75456 47.5316 11.4421C47.5316 14.2632 45.0206 16 41.5044 16C38.9934 16 36.6203 14.9847 34.9766 13.4943L36.1414 11.1917C37.7852 12.6821 39.8389 13.4943 41.5517 13.4943C43.4241 13.4943 44.5417 12.7945 44.5417 11.5761C44.5417 8.0552 35.9128 10.0187 35.9128 4.4002C35.9128 1.69345 38.2641 0 41.733 0C43.8104 0 45.8425 0.654514 47.3247 1.62445L46.2052 3.97043C44.4707 2.9315 42.7362 2.5037 41.5261 2.5037" fill="white"/>
<path d="M57.2324 10.6515V15.9092H54.5617V10.7422L48.6035 0.114258H51.3195L55.8843 7.80671L60.3584 0.114258H63.098L57.2324 10.6515Z" fill="white"/>
<path d="M74.4208 12.3429H66.3635L64.834 15.9092H62.0273L69.0814 0.114258H71.8428L78.8279 15.9092H75.9522L74.4227 12.3429H74.4208ZM73.3939 9.9733L70.3803 2.95507L67.3667 9.9733H73.3939Z" fill="white"/>
<path d="M91.0839 15.9092L88.163 11.1246C87.9343 11.1483 87.684 11.1483 87.4317 11.1483H83.6416V15.9092H80.9473V0.114258H87.4298C91.5156 0.114258 93.8669 2.07778 93.8669 5.50805C93.8669 8.0354 92.6804 9.81756 90.5577 10.6298L94.1429 15.9112H91.0839V15.9092ZM87.4317 8.75496C89.8974 8.75496 91.3126 7.71603 91.3126 5.57311C91.3126 3.43018 89.8974 2.50361 87.4317 2.50361H83.6416V8.753H87.4317V8.75496Z" fill="white"/>
<path d="M100.147 0.114258H97.4531V15.9092H100.147V0.114258Z" fill="white"/>
<path d="M115.007 15.9092L109.756 8.93634L107.04 11.8915V15.9092H104.346V0.114258H107.04V8.28183L114.664 0.114258H117.837L111.65 6.86044L118.247 15.9092H115.007Z" fill="white"/>
<path d="M131.052 12.3429H122.994L121.465 15.9092H118.656L125.71 0.114258H128.472L135.457 15.9092H132.581L131.052 12.3429ZM130.025 9.9733L127.011 2.95507L123.998 9.9733H130.025Z" fill="white"/>
<path d="M146.917 0.114258V2.50558H141.849V15.9092H139.157V2.50558H134.111V0.114258H146.917Z" fill="white"/>
</svg>
