<svg width="16" height="16" viewBox="0 0 16 16" fill="none" xmlns="http://www.w3.org/2000/svg">
<path fill-rule="evenodd" clip-rule="evenodd" d="M8 10C6.89543 10 6 9.10457 6 8C6 6.89543 6.89543 6 8 6C9.10457 6 10 6.89543 10 8C10 9.10457 9.10457 10 8 10Z" stroke="black" stroke-width="1.5" stroke-linecap="round" stroke-linejoin="round"/>
<path d="M1.33398 7.41321C1.33398 6.71988 1.90065 6.14654 2.60065 6.14654C3.80732 6.14654 4.30065 5.29321 3.69398 4.24654C3.34732 3.64654 3.55398 2.86654 4.16065 2.51988L5.31398 1.85988C5.84065 1.54654 6.52065 1.73321 6.83398 2.25988L6.90732 2.38654C7.50732 3.43321 8.49398 3.43321 9.10065 2.38654L9.17398 2.25988C9.48732 1.73321 10.1673 1.54654 10.694 1.85988L11.8473 2.51988C12.454 2.86654 12.6607 3.64654 12.314 4.24654C11.7073 5.29321 12.2007 6.14654 13.4073 6.14654C14.1007 6.14654 14.674 6.71321 14.674 7.41321V8.58654C14.674 9.27988 14.1073 9.85321 13.4073 9.85321C12.2007 9.85321 11.7073 10.7065 12.314 11.7532C12.6607 12.3599 12.454 13.1332 11.8473 13.4799L10.694 14.1399C10.1673 14.4532 9.48732 14.2665 9.17398 13.7399L9.10065 13.6132C8.50065 12.5665 7.51398 12.5665 6.90732 13.6132L6.83398 13.7399C6.52065 14.2665 5.84065 14.4532 5.31398 14.1399L4.16065 13.4799C3.55398 13.1332 3.34732 12.3532 3.69398 11.7532C4.30065 10.7065 3.80732 9.85321 2.60065 9.85321C1.90065 9.85321 1.33398 9.27988 1.33398 8.58654V7.41321Z" stroke="black" stroke-width="1.5" stroke-linecap="round" stroke-linejoin="round"/>
</svg>
